User Type,Username,Date,Text
,eestiasi,2012-10-15T15:27Z,"Complete name                            : Vasaku jala reede (2012) PDTV.avi
Format                                   : AVI
Format/Info                              : Audio Video Interleave
Format profile                           : OpenDML
File size                                : 1.49 GiB
Duration                                 : 1h 40mn
Overall bit rate                         : 2 121 Kbps
Writing application                      : Lavf52.104.0

Video
ID                                       : 0
Format                                   : xvid
Codec ID                                 : xvid
Duration                                 : 1h 40mn
Bit rate                                 : 1 916 Kbps
Width                                    : 720 pixels
Height                                   : 576 pixels
Display aspect ratio                     : 16:9
Frame rate                               : 25.000 fps
Standard                                 : PAL
Bits/(Pixel*Frame)                       : 0.185
Stream size                              : 1.34 GiB (90%)

Audio
ID                                       : 1
Format                                   : MPEG Audio
Format version                           : Version 1
Format profile                           : Layer 3
Mode                                     : Joint stereo
Mode extension                           : MS Stereo
Codec ID                                 : 55
Codec ID/Hint                            : MP3
Duration                                 : 1h 40mn
Bit rate mode                            : Constant
Bit rate                                 : 192 Kbps
Channel(s)                               : 2 channels
Sampling rate                            : 44.1 KHz
Compression mode                         : Lossy
Stream size                              : 138 MiB (9%)
Alignment                                : Aligned on interleaves
Interleave, duration                     : 26 ms (0.65 video frame)
Interleave, preload duration             : 26 ms"
,eestiasi,2012-10-15T15:30Z,Thumbs: http://www.upload.ee/image/2747847/Vasaku_jala_reede__2012__PDTV.avi_thumbs__2012.10.15_16.29.04_.jpg
